<?xml version="1.0" encoding="UTF-8" standalone="no"?>
<svg
   xmlns:dc="http://purl.org/dc/elements/1.1/"
   xmlns:cc="http://creativecommons.org/ns#"
   xmlns:rdf="http://www.w3.org/1999/02/22-rdf-syntax-ns#"
   xmlns:svg="http://www.w3.org/2000/svg"
   xmlns="http://www.w3.org/2000/svg"
   xmlns:sodipodi="http://sodipodi.sourceforge.net/DTD/sodipodi-0.dtd"
   xmlns:inkscape="http://www.inkscape.org/namespaces/inkscape"
   version="1.0"
   xml:space="preserve"
   width="472.49115pt"
   height="472.49115pt"
   viewBox="0 0 162.86733 167.43628"
   preserveAspectRatio="xMidYMid meet"
   id="svg2"
   inkscape:version="0.91 r13725"
   sodipodi:docname="ficons-plant.svg"><metadata
     id="metadata28"><rdf:RDF><cc:Work
         rdf:about=""><dc:format>image/svg+xml</dc:format><dc:type
           rdf:resource="http://purl.org/dc/dcmitype/StillImage" /><dc:title></dc:title></cc:Work></rdf:RDF></metadata><defs
     id="defs26" /><sodipodi:namedview
     pagecolor="#ffffff"
     bordercolor="#666666"
     borderopacity="1"
     objecttolerance="10"
     gridtolerance="10"
     guidetolerance="10"
     inkscape:pageopacity="0"
     inkscape:pageshadow="2"
     inkscape:window-width="1366"
     inkscape:window-height="712"
     id="namedview24"
     showgrid="false"
     fit-margin-top="0"
     fit-margin-left="0"
     fit-margin-right="0"
     fit-margin-bottom="0"
     inkscape:zoom="0.52149125"
     inkscape:cx="266.20744"
     inkscape:cy="187.95788"
     inkscape:window-x="0"
     inkscape:window-y="25"
     inkscape:window-maximized="1"
     inkscape:current-layer="svg2" /><circle
     style="fill:#ffffff;fill-opacity:1;stroke:none;stroke-width:32;stroke-miterlimit:4;stroke-dasharray:none;stroke-opacity:1"
     id="path4179"
     cx="81.433662"
     cy="83.71814"
     r="75.563774" /><g
     transform="matrix(0.62300489,0,0,0.62300489,29.119317,44.089422)"
     id="g4156"><path
       style="fill:#000000"
       inkscape:connector-curvature="0"
       id="path4"
       d="m 133.8105,14.188 c 0.077,1.313 -1.786,0.968 -1.786,2.293 0,38.551 -44.719997,96.831 -89.846997,108.19 l 0,1.182 C 102.1345,120.343 168.9075,59.053 170.4175,0.003 l -36.6,14.189 z" /><path
       style="fill:#000000"
       inkscape:connector-curvature="0"
       id="path6"
       d="m 117.7505,17.959 c 0.077,1.313 0.121,2.633 0.121,3.958 0,38.551 -30.699997,90.497 -75.826997,101.86 l 0,1.637 C 101.1095,121.591 147.8545,62.391 147.8545,16.214 c 0,-2.375 -0.125,-4.729 -0.371,-7.056 l -29.73,8.796 z" /><path
       style="fill:#000000"
       inkscape:connector-curvature="0"
       id="path8"
       d="m 34.119503,14.188 c -0.077,1.313 1.787,0.968 1.787,2.293 0,38.551 46.558,97.366 91.687997,108.73 l 0,1.639 C 67.641503,121.33 -0.96549664,59.05 -2.4754966,0 L 34.123503,14.189 Z" /><path
       style="fill:#000000"
       inkscape:connector-curvature="0"
       id="path10"
       d="m 52.251503,18.931 c -0.076,1.313 -0.12,2.63 -0.12,3.957 0,38.551 30.699,90.497 75.826997,101.86 l 0,1.639 C 68.914503,123.597 22.148503,63.363 22.148503,17.187 c 0,-2.375 0.128,-4.729 0.371,-7.056 l 29.73,8.798 z" /><path
       style="fill:#000000"
       inkscape:connector-curvature="0"
       id="path12"
       d="m 22.233503,9.582 7.617,2.722 c -0.041,0.962 -0.066,2.254 -0.066,3.225 0,41.219 37.271,98.204 87.271997,107.12 3.245,1.088 7.538,2.077 10.932,2.931 l 0,1.638 C 62.734503,121.658 16.888503,55.352 22.228503,9.578 Z" /><path
       style="fill:#000000"
       inkscape:connector-curvature="0"
       id="path14"
       d="m 147.8605,8.759 -7.833,2.625 c 0.041,0.963 0.191,2.203 0.191,3.173 0,41.219 -37.272,98.205 -87.273997,107.12 -3.243,1.089 -7.538,2.077 -10.93,2.932 l 0,1.639 C 110.3585,117.588 153.1945,54.529 147.8545,8.758 Z" /></g></svg>